<!-- icon666.com - MILLIONS vector ICONS FREE --><svg fill="none" viewBox="0 0 512 512" xmlns="http://www.w3.org/2000/svg"><path clip-rule="evenodd" d="m128 32c-53.0193 0-96 42.9807-96 96v256c0 53.019 42.9807 96 96 96h256c53.019 0 96-42.981 96-96v-256c0-53.0193-42.981-96-96-96zm52 96c0-11.046-8.954-20-20-20s-20 8.954-20 20v176c0 55.228 44.772 100 100 100h32c55.228 0 100-44.772 100-100v-176c0-11.046-8.954-20-20-20s-20 8.954-20 20v176c0 33.137-26.863 60-60 60h-32c-33.137 0-60-26.863-60-60z" fill="rgb(0,0,0)" fill-rule="evenodd"></path></svg>