<svg width="56" height="56" viewBox="0 0 56 56" fill="none" xmlns="http://www.w3.org/2000/svg">
<path d="M45.3027 14.6061L46.2231 8.22974C46.7403 4.64569 49.6335 2 53.0355 2M45.3027 14.6061L42.3661 34.9528C41.7004 39.565 37.9772 42.9697 33.5993 42.9697H12.8446C8.68727 42.9697 5.08775 39.8919 4.1859 35.5661L2.21482 26.1116C0.983849 20.2071 5.199 14.6061 10.8735 14.6061H45.3027ZM36.774 51.6364C36.774 52.9418 35.7812 54 34.5565 54C33.3319 54 32.3391 52.9418 32.3391 51.6364C32.3391 50.331 33.3319 49.2727 34.5565 49.2727C35.7812 49.2727 36.774 50.331 36.774 51.6364ZM13.121 51.6364C13.121 52.9418 12.1282 54 10.9035 54C9.67883 54 8.68603 52.9418 8.68603 51.6364C8.68603 50.331 9.67883 49.2727 10.9035 49.2727C12.1282 49.2727 13.121 50.331 13.121 51.6364Z" stroke="black" stroke-width="4" stroke-linecap="round" stroke-linejoin="round"/>
</svg>
