<svg width="123" height="123" viewBox="0 0 123 123" fill="none" xmlns="http://www.w3.org/2000/svg">
<path d="M61.7881 0.945435C95.3906 0.945435 122.631 28.1856 122.631 61.7882C122.631 95.3907 95.3906 122.631 61.7881 122.631C28.1855 122.631 0.945312 95.3907 0.945312 61.7882C0.945312 28.1856 28.1855 0.945435 61.7881 0.945435ZM61.7881 70.898C51.8425 70.898 42.5219 74.8996 35.7012 81.865C33.9382 83.6651 33.9685 86.5541 35.7689 88.317C37.5692 90.08 40.4579 90.0495 42.2208 88.2489C47.3423 83.019 54.3215 80.023 61.7881 80.023C69.2384 80.023 76.2032 83.0056 81.3223 88.2154C83.0883 90.013 85.9773 90.038 87.7743 88.272C89.5719 86.506 89.5969 83.6176 87.8309 81.82C81.0139 74.882 71.7113 70.898 61.7881 70.898ZM43.5408 42.0213C39.3435 42.0213 35.9409 45.4238 35.9409 49.6211C35.9409 53.8184 39.3435 57.2208 43.5408 57.2208C47.7381 57.2208 51.1405 53.8184 51.1405 49.6211C51.1405 45.4238 47.7381 42.0213 43.5408 42.0213ZM80.0406 42.0213C75.8437 42.0213 72.4407 45.4238 72.4407 49.6211C72.4407 53.8184 75.8437 57.2208 80.0406 57.2208C84.2381 57.2208 87.6405 53.8184 87.6405 49.6211C87.6405 45.4238 84.2381 42.0213 80.0406 42.0213Z" fill="black" fill-opacity="0.81"/>
</svg>
