<svg width="14" height="16" viewBox="0 0 14 16" fill="none" xmlns="http://www.w3.org/2000/svg">
<path d="M6.66206 0.0625L6.96206 0.252314C7.81122 0.771874 8.71079 1.20432 9.64706 1.54305C10.6364 1.86435 11.6534 2.09344 12.6851 2.22738L13.0361 2.26934L13.1141 2.614C13.1561 2.79982 14.1311 7.2095 12.5941 10.5123C11.0571 13.815 7.08506 15.8151 6.91606 15.898L6.69006 16.0099L6.46506 15.895C6.30206 15.8121 2.44806 13.811 0.911055 10.5123C-0.625945 7.2135 0.234055 2.81181 0.271055 2.62599L0.343055 2.26434L0.710055 2.22638C1.8275 2.10495 2.9306 1.87611 4.00406 1.54305C4.85521 1.2443 5.65652 0.819285 6.38106 0.282285L6.66206 0.0625ZM12.2041 3.16946C11.2248 3.02561 10.2599 2.79731 9.32006 2.48713C8.41757 2.16399 7.54715 1.75763 6.72006 1.27331C5.9814 1.78182 5.17837 2.19 4.33206 2.48713C3.30937 2.81319 2.25849 3.04329 1.19306 3.17445C1.03006 4.25639 0.659055 7.60212 1.81806 10.0897C3.00806 12.6442 5.87406 14.4135 6.69706 14.885C7.53806 14.4204 10.4971 12.6502 11.6871 10.0897C12.8511 7.59513 12.3911 4.23242 12.2041 3.16946Z" fill="black"/>
</svg>
